<svg width="434" height="239" viewBox="0 0 434 239" fill="none" xmlns="http://www.w3.org/2000/svg">
	<path fill-rule="evenodd" clip-rule="evenodd" d="M21.093 119.779C21.093 150.296 45.8319 175.035 76.3488 175.035C106.866 175.035 131.605 150.296 131.605 119.779C131.605 89.2618 106.866 64.5229 76.3488 64.5229C45.8319 64.5229 21.093 89.2618 21.093 119.779ZM1 119.779C1 122.553 3.24899 124.802 6.02326 124.802C8.79752 124.802 11.0465 122.553 11.0465 119.779C11.0465 117.004 8.79752 114.756 6.02326 114.756C3.24899 114.756 1 117.004 1 119.779Z" fill="url(#paint0_linear_69_201)" />
	<path fill-rule="evenodd" clip-rule="evenodd" d="M83.8837 9.26731C83.8837 13.4287 80.5103 16.8022 76.3488 16.8022C72.1874 16.8022 68.814 13.4287 68.814 9.26731C68.814 5.10587 72.1874 1.73242 76.3488 1.73242C80.5103 1.73242 83.8837 5.10587 83.8837 9.26731Z" fill="url(#paint1_linear_69_201)" />
	<path fill-rule="evenodd" clip-rule="evenodd" d="M161.744 119.779C161.744 150.296 186.483 175.035 217 175.035C247.517 175.035 272.256 150.296 272.256 119.779C272.256 89.2618 247.517 64.5229 217 64.5229C186.483 64.5229 161.744 89.2618 161.744 119.779ZM141.651 119.779C141.651 122.553 143.9 124.802 146.674 124.802C149.449 124.802 151.698 122.553 151.698 119.779C151.698 117.004 149.449 114.756 146.674 114.756C143.9 114.756 141.651 117.004 141.651 119.779Z" fill="url(#paint2_linear_69_201)" />
	<path fill-rule="evenodd" clip-rule="evenodd" d="M224.535 230.29C224.535 234.452 221.161 237.825 217 237.825C212.839 237.825 209.465 234.452 209.465 230.29C209.465 226.129 212.839 222.756 217 222.756C221.161 222.756 224.535 226.129 224.535 230.29Z" fill="url(#paint3_linear_69_201)" />
	<path fill-rule="evenodd" clip-rule="evenodd" d="M302.395 119.779C302.395 150.296 327.134 175.035 357.651 175.035C388.168 175.035 412.907 150.296 412.907 119.779C412.907 89.2618 388.168 64.5229 357.651 64.5229C327.134 64.5229 302.395 89.2618 302.395 119.779ZM282.302 119.779C282.302 122.553 284.551 124.802 287.326 124.802C290.1 124.802 292.349 122.553 292.349 119.779C292.349 117.004 290.1 114.756 287.326 114.756C284.551 114.756 282.302 117.004 282.302 119.779ZM422.953 119.779C422.953 122.553 425.202 124.802 427.977 124.802C430.751 124.802 433 122.553 433 119.779C433 117.004 430.751 114.756 427.977 114.756C425.202 114.756 422.953 117.004 422.953 119.779Z" fill="url(#paint4_linear_69_201)" />
	<path fill-rule="evenodd" clip-rule="evenodd" d="M365.186 9.26731C365.186 13.4287 361.813 16.8022 357.651 16.8022C353.49 16.8022 350.116 13.4287 350.116 9.26731C350.116 5.10587 353.49 1.73242 357.651 1.73242C361.813 1.73242 365.186 5.10587 365.186 9.26731Z" fill="url(#paint5_linear_69_201)" />
	<path d="M146.498 124.802C143.922 161.298 113.5 190.105 76.3489 190.105C39.1981 190.105 8.77563 161.298 6.19995 124.802M287.149 114.756C284.573 78.2603 254.151 49.4534 217 49.4534C179.849 49.4534 149.427 78.2603 146.851 114.756M427.8 124.802C425.225 161.298 394.802 190.105 357.651 190.105C320.5 190.105 290.078 161.298 287.502 124.802" stroke="#484848" stroke-width="2" stroke-linecap="round" stroke-linejoin="round" stroke-dasharray="5 7" />
	<path fill-rule="evenodd" clip-rule="evenodd" d="M21.093 119.779C21.093 150.296 45.8319 175.035 76.3488 175.035C106.866 175.035 131.605 150.296 131.605 119.779C131.605 89.2618 106.866 64.5229 76.3488 64.5229C45.8319 64.5229 21.093 89.2618 21.093 119.779ZM1 119.779C1 122.553 3.24899 124.802 6.02326 124.802C8.79752 124.802 11.0465 122.553 11.0465 119.779C11.0465 117.004 8.79752 114.756 6.02326 114.756C3.24899 114.756 1 117.004 1 119.779Z" stroke="#484848" stroke-width="2" stroke-linecap="round" stroke-linejoin="round" />
	<path fill-rule="evenodd" clip-rule="evenodd" d="M83.8837 9.26731C83.8837 13.4287 80.5103 16.8022 76.3488 16.8022C72.1874 16.8022 68.814 13.4287 68.814 9.26731C68.814 5.10587 72.1874 1.73242 76.3488 1.73242C80.5103 1.73242 83.8837 5.10587 83.8837 9.26731Z" stroke="#484848" stroke-width="2" stroke-linecap="round" stroke-linejoin="round" />
	<path fill-rule="evenodd" clip-rule="evenodd" d="M161.744 119.779C161.744 150.296 186.483 175.035 217 175.035C247.517 175.035 272.256 150.296 272.256 119.779C272.256 89.2618 247.517 64.5229 217 64.5229C186.483 64.5229 161.744 89.2618 161.744 119.779ZM141.651 119.779C141.651 122.553 143.9 124.802 146.674 124.802C149.449 124.802 151.698 122.553 151.698 119.779C151.698 117.004 149.449 114.756 146.674 114.756C143.9 114.756 141.651 117.004 141.651 119.779Z" stroke="#484848" stroke-width="2" stroke-linecap="round" stroke-linejoin="round" />
	<path fill-rule="evenodd" clip-rule="evenodd" d="M224.535 230.29C224.535 234.452 221.161 237.825 217 237.825C212.839 237.825 209.465 234.452 209.465 230.29C209.465 226.129 212.839 222.756 217 222.756C221.161 222.756 224.535 226.129 224.535 230.29Z" stroke="#484848" stroke-width="2" stroke-linecap="round" stroke-linejoin="round" />
	<path fill-rule="evenodd" clip-rule="evenodd" d="M302.395 119.779C302.395 150.296 327.134 175.035 357.651 175.035C388.168 175.035 412.907 150.296 412.907 119.779C412.907 89.2618 388.168 64.5229 357.651 64.5229C327.134 64.5229 302.395 89.2618 302.395 119.779ZM282.302 119.779C282.302 122.553 284.551 124.802 287.326 124.802C290.1 124.802 292.349 122.553 292.349 119.779C292.349 117.004 290.1 114.756 287.326 114.756C284.551 114.756 282.302 117.004 282.302 119.779ZM422.953 119.779C422.953 122.553 425.202 124.802 427.977 124.802C430.751 124.802 433 122.553 433 119.779C433 117.004 430.751 114.756 427.977 114.756C425.202 114.756 422.953 117.004 422.953 119.779Z" stroke="#484848" stroke-width="2" stroke-linecap="round" stroke-linejoin="round" />
	<path fill-rule="evenodd" clip-rule="evenodd" d="M365.186 9.26731C365.186 13.4287 361.813 16.8022 357.651 16.8022C353.49 16.8022 350.116 13.4287 350.116 9.26731C350.116 5.10587 353.49 1.73242 357.651 1.73242C361.813 1.73242 365.186 5.10587 365.186 9.26731Z" stroke="#484848" stroke-width="2" stroke-linecap="round" stroke-linejoin="round" />
	<path d="M76.3489 64.5232V16.8022" stroke="#484848" stroke-width="2" stroke-linecap="round" stroke-linejoin="round" />
	<path d="M357.651 64.5232V16.8022" stroke="#484848" stroke-width="2" stroke-linecap="round" stroke-linejoin="round" />
	<path d="M217 222.756V175.035" stroke="#484848" stroke-width="2" stroke-linecap="round" stroke-linejoin="round" />
	<path d="M56.4443 115.823C56.3603 115.128 56.3184 114.43 56.3187 113.73C56.3098 106.184 61.6647 99.6964 69.0756 98.2745C76.4865 96.8527 83.8621 100.898 86.6466 107.911M83.1512 124.844L87.6931 129.386M88.928 97.2788H97.3001V105.651M87.735 114.672C87.3114 121.789 82.1504 127.73 75.1622 129.144C68.1739 130.559 61.109 127.092 57.9512 120.7M97.2791 97.2788L78.6512 115.928C77.8349 116.739 76.5164 116.739 75.7001 115.928L70.6977 110.904C69.8814 110.093 68.5629 110.093 67.7466 110.904L52.3838 126.267M99.3722 136.921C100.212 137.703 100.558 138.882 100.274 139.994C99.9897 141.107 99.1211 141.975 98.0087 142.259C96.8963 142.544 95.7176 142.198 94.935 141.358L86.814 133.216C86.4178 132.823 86.1949 132.288 86.1949 131.73C86.1949 131.172 86.4178 130.637 86.814 130.244L88.3001 128.758C88.6931 128.362 89.228 128.139 89.7861 128.139C90.3442 128.139 90.8792 128.362 91.2722 128.758L99.3722 136.921Z" stroke="#484848" stroke-width="2" stroke-linecap="round" stroke-linejoin="round" />
	<path d="M241.095 119.877L234.297 113.081M226.444 142.901H241.095C241.095 138.883 239 135.156 235.568 133.067C232.136 130.978 227.863 130.83 224.294 132.676M236.256 121.968C236.071 124.527 234.463 126.764 232.097 127.754C229.73 128.744 227.008 128.318 225.057 126.654C223.105 124.989 222.256 122.368 222.86 119.875M218.277 125.315C217.108 123.393 216.526 121.171 216.602 118.923L216.602 116.309C216.735 113.009 215.051 109.902 212.214 108.213C209.377 106.523 205.842 106.523 203.005 108.213C200.168 109.902 198.484 113.009 198.617 116.309L198.617 118.923C198.694 121.171 198.112 123.393 196.943 125.315M198.613 117.795C202.069 117.792 205.353 116.287 207.613 113.671C209.871 116.288 213.156 117.793 216.613 117.795M215.535 117.747C215.34 121.983 211.849 125.317 207.609 125.317C203.368 125.317 199.877 121.983 199.682 117.747M215.016 130.259L207.606 137.668L200.197 130.259M218.072 106.333C218.072 111.569 222.316 115.813 227.551 115.813C232.786 115.813 237.03 111.569 237.03 106.333C237.03 101.098 232.786 96.854 227.551 96.854C222.316 96.854 218.072 101.098 218.072 106.333ZM222.258 142.901C222.258 134.809 215.698 128.249 207.606 128.249C199.515 128.249 192.955 134.809 192.955 142.901H222.258Z" stroke="#484848" stroke-width="2" stroke-linecap="round" stroke-linejoin="round" />
	<path d="M361.628 131.424V135.974C361.628 138.067 359.954 139.95 357.651 139.95M357.651 139.95C355.349 139.95 353.674 138.276 353.674 135.974V131.424M357.651 139.95V143.09M370.586 132.714C371.562 131.982 372.538 131.494 373.759 131.494L376.687 131.738C378.396 131.982 379.86 130.761 380.592 129.297C381.324 127.589 380.836 125.88 379.616 124.66L377.419 122.707C376.687 121.975 376.199 120.999 376.199 119.779C376.199 118.803 376.687 117.582 377.419 116.85L379.616 114.898C380.836 113.678 381.324 111.725 380.592 110.261C379.86 108.797 378.396 107.82 376.687 107.82L373.759 108.064C372.538 108.064 371.318 107.576 370.586 106.844C369.854 105.868 369.366 104.892 369.366 103.671L369.61 100.743C369.854 99.0344 368.634 97.57 367.169 96.8379C365.461 96.1057 363.752 96.5939 362.532 97.8141L360.58 100.011C359.848 100.743 358.871 101.231 357.651 101.231C356.431 101.231 355.455 100.743 354.722 100.011L352.77 97.8141C351.55 96.5939 349.842 96.1057 348.133 96.8379C346.669 97.57 345.449 99.0344 345.693 100.743L345.937 103.671C345.937 104.892 345.449 105.868 344.716 106.844C343.984 107.576 342.764 108.064 341.544 108.064L338.615 107.82C336.907 107.82 335.442 108.797 334.71 110.261C333.978 111.725 334.466 113.678 335.686 114.898L337.883 116.85C338.615 117.582 339.103 118.803 339.103 119.779C339.103 120.999 338.615 121.975 337.883 122.707L335.686 124.66C334.466 125.88 333.978 127.589 334.71 129.297C335.442 130.761 336.907 131.982 338.615 131.738L341.544 131.494C342.764 131.494 343.74 131.982 344.716 132.714M368.116 121.741C368.116 127.521 363.431 132.206 357.651 132.206C351.872 132.206 347.186 127.521 347.186 121.741C347.186 115.961 351.872 111.276 357.651 111.276C363.431 111.276 368.116 115.961 368.116 121.741Z" stroke="#484848" stroke-width="2" stroke-linecap="round" stroke-linejoin="round" />
	<defs>
		<linearGradient id="paint0_linear_69_201" x1="1" y1="64.5229" x2="1" y2="175.035" gradientUnits="userSpaceOnUse">
			<stop stop-color="#4E89EA" />
			<stop offset="1" stop-color="#507FCC" />
		</linearGradient>
		<linearGradient id="paint1_linear_69_201" x1="68.814" y1="1.73242" x2="68.814" y2="16.8022" gradientUnits="userSpaceOnUse">
			<stop stop-color="#4E89EA" />
			<stop offset="1" stop-color="#507FCC" />
		</linearGradient>
		<linearGradient id="paint2_linear_69_201" x1="141.651" y1="64.5229" x2="141.651" y2="175.035" gradientUnits="userSpaceOnUse">
			<stop stop-color="#49E399" />
			<stop offset="1" stop-color="#3CC583" />
		</linearGradient>
		<linearGradient id="paint3_linear_69_201" x1="209.465" y1="222.756" x2="209.465" y2="237.825" gradientUnits="userSpaceOnUse">
			<stop stop-color="#49E399" />
			<stop offset="1" stop-color="#3CC583" />
		</linearGradient>
		<linearGradient id="paint4_linear_69_201" x1="282.302" y1="64.5229" x2="282.302" y2="175.035" gradientUnits="userSpaceOnUse">
			<stop stop-color="#FFE81F" />
			<stop offset="1" stop-color="#E0CB15" />
		</linearGradient>
		<linearGradient id="paint5_linear_69_201" x1="350.116" y1="1.73242" x2="350.116" y2="16.8022" gradientUnits="userSpaceOnUse">
			<stop stop-color="#FFE81F" />
			<stop offset="1" stop-color="#E0CB15" />
		</linearGradient>
	</defs>
</svg>
