<svg width="227" height="258" viewBox="0 0 227 258" fill="none" xmlns="http://www.w3.org/2000/svg">
<path fill-rule="evenodd" clip-rule="evenodd" d="M49.4952 1L97.9902 28.9987V84.9961L81.2479 94.6623L80.4091 110.542L66.2375 103.329L49.4952 112.995L1 84.9961L1 28.9987L49.4952 1Z" fill="url(#paint0_linear_69_66)"/>
<path fill-rule="evenodd" clip-rule="evenodd" d="M49.4952 256.989L97.9902 228.99V172.993L81.2479 163.327L80.4091 147.447L66.2375 154.661L49.4952 144.994L1 172.993L1 228.99L49.4952 256.989Z" fill="url(#paint1_linear_69_66)"/>
<path fill-rule="evenodd" clip-rule="evenodd" d="M177.505 256.989L129.01 228.99L129.01 172.993L145.752 163.327L146.591 147.447L160.763 154.661L177.505 144.994L226 172.993V228.99L177.505 256.989Z" fill="url(#paint2_linear_69_66)"/>
<path fill-rule="evenodd" clip-rule="evenodd" d="M177.505 1L129.01 28.9987L129.01 84.9961L145.752 94.6623L146.591 110.542L160.763 103.329L177.505 112.995L226 84.9961V28.9987L177.505 1Z" fill="url(#paint3_linear_69_66)"/>
<path fill-rule="evenodd" clip-rule="evenodd" d="M49.4952 1L97.9902 28.9987V84.9961L81.2479 94.6623L80.4091 110.542L66.2375 103.329L49.4952 112.995L1 84.9961V28.9987L49.4952 1Z" stroke="#484848" stroke-width="2" stroke-linecap="round" stroke-linejoin="round"/>
<path fill-rule="evenodd" clip-rule="evenodd" d="M49.4952 256.989L97.9902 228.99V172.993L81.2479 163.327L80.4091 147.447L66.2375 154.661L49.4952 144.994L1 172.993V228.99L49.4952 256.989Z" stroke="#484848" stroke-width="2" stroke-linecap="round" stroke-linejoin="round"/>
<path fill-rule="evenodd" clip-rule="evenodd" d="M177.505 256.989L129.01 228.99V172.993L145.752 163.327L146.591 147.447L160.763 154.661L177.505 144.994L226 172.993V228.99L177.505 256.989Z" stroke="#484848" stroke-width="2" stroke-linecap="round" stroke-linejoin="round"/>
<path fill-rule="evenodd" clip-rule="evenodd" d="M177.505 1L129.01 28.9987V84.9961L145.752 94.6623L146.591 110.542L160.763 103.329L177.505 112.995L226 84.9961V28.9987L177.505 1Z" stroke="#484848" stroke-width="2" stroke-linecap="round" stroke-linejoin="round"/>
<path d="M46.2868 64.0294C45.1371 62.337 42.8331 61.8974 41.141 63.0474L28.1177 71.895C26.4715 73.062 26.0615 75.3314 27.1954 77.0006C28.3292 78.6697 30.59 79.125 32.2815 78.0247L45.3048 69.1771C46.9974 68.0267 47.437 65.7221 46.2868 64.0294ZM46.2868 64.0294L52.4945 59.6656V55.6658H58.4942M58.4842 52.6659L58.4942 57.6657M45.4948 54.7238V48.6661C45.4948 47.5616 46.3902 46.6662 47.4947 46.6662L69.5037 46.6862C70.6082 46.6862 71.5036 47.5816 71.5036 48.6861L71.4856 64.6254C71.4912 65.7299 70.6002 66.6298 69.4957 66.6353H53.4965M49.5166 46.6662L49.4946 41.7064C49.4726 36.7361 53.4839 32.6889 58.4542 32.6668C63.4246 32.6447 67.4717 36.6561 67.4938 41.6264M58.4822 51.666C58.7584 51.6648 58.9831 51.8878 58.9842 52.1639C58.9853 52.4401 58.7624 52.6648 58.4862 52.6659C58.2101 52.667 57.9854 52.4441 57.9843 52.1679C57.9832 52.0352 58.0352 51.9075 58.1287 51.8132C58.2222 51.719 58.3495 51.6659 58.4822 51.666Z" stroke="#484848" stroke-width="2" stroke-linecap="round" stroke-linejoin="round"/>
<path d="M180.792 66.7921V71.1391C180.792 73.139 179.192 74.939 176.992 74.939M176.992 74.939C174.792 74.939 173.192 73.339 173.192 71.1391V66.7921M176.992 74.939V77.9388M189.351 68.0243C190.284 67.3247 191.217 66.8583 192.383 66.8583L195.181 67.0915C196.813 67.3247 198.213 66.1588 198.912 64.7594C199.612 63.1271 199.146 61.4948 197.979 60.3288L195.881 58.4631C195.181 57.7636 194.715 56.8308 194.715 55.6649C194.715 54.7321 195.181 53.5662 195.881 52.8666L197.979 51.001C199.146 49.835 199.612 47.9694 198.912 46.5702C198.213 45.171 196.813 44.2383 195.181 44.2383L192.383 44.4715C191.217 44.4715 190.051 44.0051 189.351 43.3055C188.652 42.3727 188.185 41.4399 188.185 40.274L188.418 37.4756C188.652 35.8432 187.486 34.444 186.087 33.7445C184.454 33.0449 182.822 33.5113 181.656 34.6773L179.79 36.776C179.091 37.4756 178.158 37.942 176.992 37.942C175.826 37.942 174.893 37.4756 174.194 36.776L172.328 34.6773C171.162 33.5113 169.53 33.0449 167.897 33.7445C166.498 34.444 165.332 35.8432 165.565 37.4756L165.799 40.274C165.799 41.4399 165.332 42.3727 164.633 43.3055C163.933 44.0051 162.767 44.4715 161.601 44.4715L158.803 44.2383C157.17 44.2383 155.771 45.171 155.072 46.5702C154.372 47.9694 154.838 49.835 156.004 51.001L158.103 52.8666C158.803 53.5662 159.269 54.7321 159.269 55.6649C159.269 56.8308 158.803 57.7636 158.103 58.4631L156.004 60.3288C154.838 61.4948 154.372 63.1271 155.072 64.7594C155.771 66.1588 157.17 67.3247 158.803 67.0915L161.601 66.8583C162.767 66.8583 163.7 67.3247 164.633 68.0243M186.992 57.5398C186.992 63.0623 182.515 67.5393 176.992 67.5393C171.469 67.5393 166.992 63.0623 166.992 57.5398C166.992 52.0172 171.469 47.5403 176.992 47.5403C182.515 47.5403 186.992 52.0172 186.992 57.5398Z" stroke="#484848" stroke-width="2" stroke-linecap="round" stroke-linejoin="round"/>
<path d="M40.9996 197.324V186.324C40.9996 185.22 41.895 184.324 42.9995 184.324H68.9983C70.1028 184.324 70.9982 185.22 70.9982 186.324V222.323C70.9982 223.427 70.1028 224.323 68.9983 224.323H49.9992M33.9999 214.323L35.9998 217.323L42.9995 210.323M47.9993 196.324H63.9985M52.999 203.324H63.9985M56.9988 210.323H63.9985M56.9988 217.323H63.9985M59.8567 183.324C59.4092 181.559 57.8203 180.323 55.9989 180.323C54.1775 180.323 52.5886 181.559 52.1411 183.324H47.9993V189.324H63.9985V183.324H59.8567ZM27.0002 213.323C27.0002 219.398 31.9249 224.323 37.9997 224.323C44.0746 224.323 48.9992 219.398 48.9992 213.323C48.9992 207.248 44.0746 202.324 37.9997 202.324C31.9249 202.324 27.0002 207.248 27.0002 213.323Z" stroke="#484848" stroke-width="2" stroke-linecap="round" stroke-linejoin="round"/>
<path d="M153.993 187.731L169.265 179.325L184.534 187.731M153.993 187.731L169.265 196.135M153.993 187.731V204.54L169.265 212.944M169.265 196.135L184.534 187.731M169.265 196.135V212.944M184.534 187.731V196.135M171.849 211.522L169.265 212.944M194.27 219.602L199.991 225.323M175.492 211.824C175.492 217.899 180.417 222.823 186.492 222.823C192.567 222.823 197.491 217.899 197.491 211.824C197.491 205.749 192.567 200.824 186.492 200.824C180.417 200.824 175.492 205.749 175.492 211.824Z" stroke="#484848" stroke-width="2" stroke-linecap="round" stroke-linejoin="round"/>
<defs>
<linearGradient id="paint0_linear_69_66" x1="1" y1="1" x2="1" y2="112.995" gradientUnits="userSpaceOnUse">
<stop stop-color="#FFE81F"/>
<stop offset="1" stop-color="#E0CB15"/>
</linearGradient>
<linearGradient id="paint1_linear_69_66" x1="1" y1="144.994" x2="1" y2="256.989" gradientUnits="userSpaceOnUse">
<stop stop-color="#49E399"/>
<stop offset="1" stop-color="#3CC583"/>
</linearGradient>
<linearGradient id="paint2_linear_69_66" x1="129.01" y1="144.994" x2="129.01" y2="256.989" gradientUnits="userSpaceOnUse">
<stop stop-color="#5696FF"/>
<stop offset="1" stop-color="#4E88E7"/>
</linearGradient>
<linearGradient id="paint3_linear_69_66" x1="129.01" y1="1" x2="129.01" y2="112.995" gradientUnits="userSpaceOnUse">
<stop stop-color="#23C8FF"/>
<stop offset="1" stop-color="#1EABDA"/>
</linearGradient>
</defs>
</svg>
