<svg width="415" height="371" viewBox="0 0 415 371" fill="none" xmlns="http://www.w3.org/2000/svg">
<path fill-rule="evenodd" clip-rule="evenodd" d="M368.96 117.056L381.562 138.884L335.272 241.793L322.669 219.965L368.96 117.056Z" fill="url(#paint0_linear_69_348)"/>
<path fill-rule="evenodd" clip-rule="evenodd" d="M250.317 226.647L85.3761 321.875L97.6573 343.147L319.756 214.918L307.474 193.647L275.551 212.078L260.817 244.833L250.317 226.647Z" fill="url(#paint1_linear_69_348)"/>
<path fill-rule="evenodd" clip-rule="evenodd" d="M256.693 105.691L368.96 117.056L322.669 219.965L307.472 193.643L275.553 212.072L307.107 141.924L294.505 120.097L263.179 116.925L256.693 105.691ZM80.3601 313.187L85.3741 321.872L250.315 226.643L245.301 217.959L80.3601 313.187Z" fill="url(#paint2_linear_69_348)"/>
<path fill-rule="evenodd" clip-rule="evenodd" d="M294.505 120.097L307.107 141.924L260.817 244.833L248.214 223.005L294.505 120.097Z" fill="url(#paint3_linear_69_348)"/>
<path fill-rule="evenodd" clip-rule="evenodd" d="M175.862 229.687L186.362 247.873L201.096 215.118L233.02 196.687L245.301 217.959L80.3602 313.187L68.0789 291.916L175.862 229.687Z" fill="url(#paint4_linear_69_348)"/>
<path fill-rule="evenodd" clip-rule="evenodd" d="M294.505 120.097L182.238 108.731L188.725 119.966L220.05 123.137L232.652 144.965L201.098 215.112L233.018 196.684L248.215 223.006L294.505 120.097ZM175.862 229.687L170.805 220.929L63.0222 283.157L68.0788 291.915L175.862 229.687Z" fill="url(#paint5_linear_69_348)"/>
<path fill-rule="evenodd" clip-rule="evenodd" d="M220.05 123.137L107.783 111.771L124.462 140.661L16.6795 202.89L50.7795 261.953L158.563 199.724L173.76 226.046L220.05 123.137Z" fill="url(#paint6_linear_69_348)"/>
<path fill-rule="evenodd" clip-rule="evenodd" d="M220.05 123.137L232.652 144.965L186.361 247.873L173.759 226.046L220.05 123.137Z" fill="url(#paint7_linear_69_348)"/>
<path fill-rule="evenodd" clip-rule="evenodd" d="M158.563 199.725L170.794 220.91L63.0113 283.139L50.7797 261.953L158.563 199.725Z" fill="url(#paint8_linear_69_348)"/>
<path fill-rule="evenodd" clip-rule="evenodd" d="M368.96 117.056L381.562 138.884L335.272 241.793L322.669 219.965L368.96 117.056Z" stroke="#484848" stroke-width="2" stroke-linecap="round" stroke-linejoin="round"/>
<path fill-rule="evenodd" clip-rule="evenodd" d="M250.317 226.647L85.3761 321.875L97.6573 343.147L319.756 214.918L307.474 193.647L275.551 212.078L260.817 244.833L250.317 226.647Z" stroke="#484848" stroke-width="2" stroke-linecap="round" stroke-linejoin="round"/>
<path fill-rule="evenodd" clip-rule="evenodd" d="M256.693 105.691L368.96 117.056L322.669 219.965L307.473 193.644L275.553 212.072L307.107 141.924L294.505 120.097L263.179 116.925L256.693 105.691ZM80.3601 313.187L85.3742 321.872L250.315 226.644L245.301 217.959L80.3601 313.187Z" stroke="#484848" stroke-width="2" stroke-linecap="round" stroke-linejoin="round"/>
<path fill-rule="evenodd" clip-rule="evenodd" d="M294.505 120.097L307.107 141.924L260.817 244.833L248.214 223.005L294.505 120.097Z" stroke="#484848" stroke-width="2" stroke-linecap="round" stroke-linejoin="round"/>
<path fill-rule="evenodd" clip-rule="evenodd" d="M175.862 229.687L186.362 247.873L201.096 215.118L233.02 196.687L245.301 217.959L80.3602 313.187L68.0789 291.916L175.862 229.687Z" stroke="#484848" stroke-width="2" stroke-linecap="round" stroke-linejoin="round"/>
<path fill-rule="evenodd" clip-rule="evenodd" d="M294.505 120.097L182.238 108.731L188.725 119.966L220.05 123.137L232.652 144.965L201.098 215.113L233.018 196.684L248.215 223.005L294.505 120.097ZM175.862 229.687L170.805 220.929L63.0223 283.157L68.0789 291.916L175.862 229.687Z" stroke="#484848" stroke-width="2" stroke-linecap="round" stroke-linejoin="round"/>
<path fill-rule="evenodd" clip-rule="evenodd" d="M220.05 123.137L107.783 111.771L124.462 140.661L16.6795 202.89L50.7797 261.953L158.563 199.724L173.759 226.046L220.05 123.137Z" stroke="#484848" stroke-width="2" stroke-linecap="round" stroke-linejoin="round"/>
<path fill-rule="evenodd" clip-rule="evenodd" d="M220.05 123.137L232.652 144.965L186.362 247.873L173.759 226.046L220.05 123.137Z" stroke="#484848" stroke-width="2" stroke-linecap="round" stroke-linejoin="round"/>
<path fill-rule="evenodd" clip-rule="evenodd" d="M158.563 199.725L170.794 220.91L63.0113 283.139L50.7797 261.953L158.563 199.725Z" stroke="#484848" stroke-width="2" stroke-linecap="round" stroke-linejoin="round"/>
<defs>
<linearGradient id="paint0_linear_69_348" x1="368.96" y1="117.056" x2="289.681" y2="162.828" gradientUnits="userSpaceOnUse">
<stop stop-color="#FFE81F"/>
<stop offset="1" stop-color="#E0CB15"/>
</linearGradient>
<linearGradient id="paint1_linear_69_348" x1="307.474" y1="193.647" x2="85.3761" y2="321.875" gradientUnits="userSpaceOnUse">
<stop stop-color="#FFE81F"/>
<stop offset="1" stop-color="#E0CB15"/>
</linearGradient>
<linearGradient id="paint2_linear_69_348" x1="335.971" y1="59.9192" x2="34.5946" y2="233.919" gradientUnits="userSpaceOnUse">
<stop stop-color="#FFE81F"/>
<stop offset="1" stop-color="#E0CB15"/>
</linearGradient>
<linearGradient id="paint3_linear_69_348" x1="294.505" y1="120.097" x2="215.226" y2="165.868" gradientUnits="userSpaceOnUse">
<stop stop-color="#49E399"/>
<stop offset="1" stop-color="#3CC583"/>
</linearGradient>
<linearGradient id="paint4_linear_69_348" x1="233.02" y1="196.687" x2="68.0789" y2="291.916" gradientUnits="userSpaceOnUse">
<stop stop-color="#49E399"/>
<stop offset="1" stop-color="#3CC583"/>
</linearGradient>
<linearGradient id="paint5_linear_69_348" x1="261.517" y1="62.9595" x2="17.2974" y2="203.959" gradientUnits="userSpaceOnUse">
<stop stop-color="#49E399"/>
<stop offset="1" stop-color="#3CC583"/>
</linearGradient>
<linearGradient id="paint6_linear_69_348" x1="187.062" y1="66" x2="3.95775e-05" y2="174" gradientUnits="userSpaceOnUse">
<stop stop-color="#5696FF"/>
<stop offset="1" stop-color="#4E88E7"/>
</linearGradient>
<linearGradient id="paint7_linear_69_348" x1="220.05" y1="123.137" x2="140.771" y2="168.908" gradientUnits="userSpaceOnUse">
<stop stop-color="#5696FF"/>
<stop offset="1" stop-color="#4E88E7"/>
</linearGradient>
<linearGradient id="paint8_linear_69_348" x1="158.563" y1="199.725" x2="50.7797" y2="261.953" gradientUnits="userSpaceOnUse">
<stop stop-color="#5696FF"/>
<stop offset="1" stop-color="#4E88E7"/>
</linearGradient>
</defs>
</svg>
