<svg aria-hidden="true" style="position: absolute; width: 0; height: 0; overflow: hidden;" version="1.1" xmlns="http://www.w3.org/2000/svg" xmlns:xlink="http://www.w3.org/1999/xlink">
	<defs>
		<symbol id="icon-target" viewBox="0 0 32 32">
			<path fill="#000" style="fill: var(--color1, #000)" d="M16 2.133c7.658 0 13.867 6.208 13.867 13.867s-6.208 13.867-13.867 13.867c-7.658 0-13.867-6.208-13.867-13.867s6.208-13.867 13.867-13.867z">
			</path>
			<path fill="none" stroke="#fff" style="stroke: var(--color2, #fff)" stroke-linejoin="miter" stroke-linecap="butt" stroke-miterlimit="4" stroke-width="2.1333" d="M16 2.133c7.658 0 13.867 6.208 13.867 13.867s-6.208 13.867-13.867 13.867c-7.658 0-13.867-6.208-13.867-13.867s6.208-13.867 13.867-13.867z">
			</path>
			<path fill="#fff" style="fill: var(--color2, #fff)" d="M20.267 16c0 2.356-1.91 4.267-4.267 4.267s-4.267-1.91-4.267-4.267c0-2.356 1.91-4.267 4.267-4.267s4.267 1.91 4.267 4.267z">
			</path>
			<path fill="none" stroke="#fff" style="stroke: var(--color2, #fff)" stroke-linejoin="miter" stroke-linecap="butt" stroke-miterlimit="4" stroke-width="2.1333" d="M25.6 16c0 5.302-4.298 9.6-9.6 9.6s-9.6-4.298-9.6-9.6c0-5.302 4.298-9.6 9.6-9.6s9.6 4.298 9.6 9.6z">
			</path>
		</symbol>
		<symbol id="icon-home" viewBox="0 0 32 32">
			<path d="M32 18.451l-16-12.42-16 12.42v-5.064l16-12.42 16 12.42zM28 18v12h-8v-8h-8v8h-8v-12l12-9z">
			</path>
		</symbol>
	</defs>
</svg>
